<svg xmlns="http://www.w3.org/2000/svg" viewBox="0 0 106.87 19.19"><defs><style>.cls-1{fill:#312a20;}.cls-2{fill:none;stroke:#eebc45;stroke-linecap:round;stroke-linejoin:round;stroke-width:0.5px;}</style></defs><title>header_logo</title><g id="Слой_2" data-name="Слой 2"><g id="Слой_1-2" data-name="Слой 1"><circle class="cls-1" cx="9.6" cy="9.6" r="9.6"/><path class="cls-2" d="M3.23,8.41a1.19,1.19,0,1,0,0,2.37"/><line class="cls-2" x1="9.09" y1="10.78" x2="3.23" y2="10.78"/><line class="cls-2" x1="3.23" y1="9.59" x2="8.48" y2="9.59"/><line class="cls-2" x1="3.23" y1="8.41" x2="7.68" y2="8.41"/><path class="cls-2" d="M17.54,9.56a1.18,1.18,0,0,0-1.19-1.18"/><path class="cls-2" d="M16.35,10.75a1.19,1.19,0,0,0,1.19-1.19"/><line class="cls-2" x1="10.5" y1="8.36" x2="16.35" y2="8.38"/><line class="cls-2" x1="16.35" y1="9.56" x2="11.1" y2="9.56"/><line class="cls-2" x1="16.35" y1="10.75" x2="11.9" y2="10.75"/><path class="cls-2" d="M5.91,16.31a1.18,1.18,0,0,0,1.62-.43"/><path class="cls-2" d="M5.48,14.7a1.18,1.18,0,0,0,.43,1.61"/><line class="cls-2" x1="10.51" y1="10.71" x2="7.53" y2="15.88"/><line class="cls-2" x1="6.5" y1="15.29" x2="9.13" y2="10.78"/><line class="cls-2" x1="5.48" y1="14.7" x2="7.71" y2="10.84"/><path class="cls-2" d="M13.69,16.27a1.18,1.18,0,0,0,.43-1.62"/><path class="cls-2" d="M12.08,15.83a1.18,1.18,0,0,0,1.61.44"/><line class="cls-2" x1="11.1" y1="9.56" x2="14.12" y2="14.65"/><line class="cls-2" x1="13.1" y1="15.24" x2="10.51" y2="10.71"/><line class="cls-2" x1="12.08" y1="15.83" x2="9.85" y2="11.97"/><path class="cls-2" d="M13.69,2.88a1.18,1.18,0,0,0-1.62.43"/><path class="cls-2" d="M14.12,4.49a1.18,1.18,0,0,0-.43-1.61"/><line class="cls-2" x1="9.18" y1="8.47" x2="12.07" y2="3.31"/><line class="cls-2" x1="13.1" y1="3.9" x2="10.5" y2="8.36"/><line class="cls-2" x1="14.12" y1="4.49" x2="11.89" y2="8.35"/><path class="cls-2" d="M5.93,2.89A1.18,1.18,0,0,0,5.5,4.51"/><path class="cls-2" d="M7.54,3.33a1.18,1.18,0,0,0-1.61-.44"/><line class="cls-2" x1="8.52" y1="9.6" x2="5.5" y2="4.51"/><line class="cls-2" x1="6.52" y1="3.92" x2="9.15" y2="8.52"/><line class="cls-2" x1="7.54" y1="3.33" x2="9.77" y2="7.19"/><path class="cls-1" d="M22.05,1h4.06c2.79,0,4,1.3,4,3.94v.69c0,1.76-.53,2.86-1.73,3.35v.05c1.44.49,2,1.76,2,3.57V14.1c0,2.64-1.39,4.06-4.08,4.06H22.05Zm3.74,7c1,0,1.61-.45,1.61-1.82v-1C27.4,4,27,3.48,26,3.48H24.74V8Zm.49,7.7c.9,0,1.39-.41,1.39-1.69V12.53c0-1.59-.51-2.08-1.73-2.08h-1.2v5.26Z"/><path class="cls-1" d="M31.93,1h3.38l2.61,10.25h0V1h2.4V18.16H37.61L34.38,5.66h-.05v12.5h-2.4Z"/><path class="cls-1" d="M42.38,1h2.69V8.25L48.49,1h2.69L48,7.32l3.25,10.84H48.42l-2.28-7.64L45.07,12.7v5.46H42.38Z"/><path class="cls-1" d="M51.94,14.19V5c0-2.65,1.37-4.21,4-4.21s4,1.56,4,4.21V6.81H57.32v-2c0-1.12-.53-1.59-1.34-1.59s-1.35.47-1.35,1.59v9.57c0,1.13.54,1.57,1.35,1.57s1.34-.44,1.34-1.57V11.77h2.55v2.42c0,2.65-1.37,4.21-4,4.21S51.94,16.84,51.94,14.19Z"/><path class="cls-1" d="M61.48,1h4c2.79,0,4,1.3,4,3.94V6c0,1.77-.56,2.89-1.76,3.38v0c1.34.41,1.78,1.69,1.78,3.62v3a5,5,0,0,0,.3,2.08H67a5.18,5.18,0,0,1-.25-2.11V12.92c0-1.59-.46-2.1-1.69-2.1h-.92v7.34h-2.7Zm3.67,7.34c1,0,1.62-.44,1.62-1.81V5.24c0-1.22-.42-1.76-1.37-1.76H64.18V8.37Z"/><path class="cls-1" d="M73.42,10.87,70.17,1H73l1.84,6.29h0L76.75,1h2.62l-3.26,9.84v7.29H73.42Z"/><path class="cls-1" d="M80.59,1h4c2.69,0,4,1.5,4,4.24V7c0,2.74-1.32,4.24-4,4.24H83.28v7H80.59Zm4,7.71c.85,0,1.32-.39,1.32-1.62v-2c0-1.22-.47-1.61-1.32-1.61H83.28V8.74Z"/><path class="cls-1" d="M92.19,3.48H89.38V1h8.31V3.48H94.88V18.16H92.19Z"/><path class="cls-1" d="M98.7,14.1v-9c0-2.74,1.44-4.3,4.08-4.3s4.09,1.56,4.09,4.3v9c0,2.74-1.45,4.3-4.09,4.3S98.7,16.84,98.7,14.1Zm5.48.17V4.92c0-1.22-.54-1.69-1.4-1.69s-1.39.47-1.39,1.69v9.35c0,1.22.54,1.69,1.39,1.69S104.18,15.49,104.18,14.27Z"/></g></g></svg>