<svg xmlns="http://www.w3.org/2000/svg" viewBox="0 0 107.06 34.02"><defs><style>.cls-1{fill:#312a20;}.cls-2{fill:none;stroke:#eebc45;stroke-linecap:round;stroke-linejoin:round;stroke-width:0.5px;}.cls-3{fill:#201600;}</style></defs><title>logo_footer_1</title><g id="Слой_2" data-name="Слой 2"><g id="Слой_1-2" data-name="Слой 1"><circle class="cls-1" cx="9.79" cy="9.6" r="9.6"/><path class="cls-2" d="M3.42,8.41a1.19,1.19,0,0,0,0,2.37"/><line class="cls-2" x1="9.29" y1="10.78" x2="3.42" y2="10.78"/><line class="cls-2" x1="3.42" y1="9.59" x2="8.67" y2="9.59"/><line class="cls-2" x1="3.42" y1="8.41" x2="7.88" y2="8.41"/><path class="cls-2" d="M17.73,9.56a1.18,1.18,0,0,0-1.18-1.18"/><path class="cls-2" d="M16.55,10.75a1.18,1.18,0,0,0,1.18-1.19"/><line class="cls-2" x1="10.7" y1="8.36" x2="16.55" y2="8.38"/><line class="cls-2" x1="16.55" y1="9.56" x2="11.3" y2="9.56"/><line class="cls-2" x1="16.55" y1="10.75" x2="12.09" y2="10.75"/><path class="cls-2" d="M6.11,16.31a1.18,1.18,0,0,0,1.62-.43"/><path class="cls-2" d="M5.68,14.7a1.17,1.17,0,0,0,.43,1.61"/><line class="cls-2" x1="10.7" y1="10.71" x2="7.73" y2="15.88"/><line class="cls-2" x1="6.7" y1="15.29" x2="9.33" y2="10.78"/><line class="cls-2" x1="5.68" y1="14.7" x2="7.9" y2="10.84"/><path class="cls-2" d="M13.89,16.27a1.19,1.19,0,0,0,.43-1.62"/><path class="cls-2" d="M12.27,15.83a1.19,1.19,0,0,0,1.62.44"/><line class="cls-2" x1="11.3" y1="9.56" x2="14.32" y2="14.65"/><line class="cls-2" x1="13.3" y1="15.24" x2="10.7" y2="10.71"/><line class="cls-2" x1="12.27" y1="15.83" x2="10.05" y2="11.97"/><path class="cls-2" d="M13.89,2.88a1.18,1.18,0,0,0-1.62.43"/><path class="cls-2" d="M14.32,4.49a1.19,1.19,0,0,0-.43-1.61"/><line class="cls-2" x1="9.37" y1="8.47" x2="12.27" y2="3.31"/><line class="cls-2" x1="13.29" y1="3.9" x2="10.7" y2="8.36"/><line class="cls-2" x1="14.32" y1="4.49" x2="12.09" y2="8.35"/><path class="cls-2" d="M6.13,2.89a1.19,1.19,0,0,0-.44,1.62"/><path class="cls-2" d="M7.74,3.33a1.18,1.18,0,0,0-1.61-.44"/><line class="cls-2" x1="8.72" y1="9.6" x2="5.69" y2="4.51"/><line class="cls-2" x1="6.72" y1="3.92" x2="9.35" y2="8.52"/><line class="cls-2" x1="7.74" y1="3.33" x2="9.97" y2="7.19"/><path class="cls-1" d="M22.24,1H26.3c2.79,0,4,1.3,4,3.94v.69c0,1.76-.54,2.86-1.73,3.35v.05c1.44.49,2,1.76,2,3.57V14.1c0,2.64-1.39,4.06-4.08,4.06H22.24ZM26,8c1,0,1.61-.45,1.61-1.82v-1c0-1.22-.41-1.76-1.37-1.76h-1.3V8Zm.49,7.7c.9,0,1.39-.41,1.39-1.69V12.53c0-1.59-.51-2.08-1.74-2.08h-1.2v5.26Z"/><path class="cls-1" d="M32.13,1H35.5l2.62,10.25h.05V1h2.4V18.16H37.8L34.57,5.66h0v12.5H32.13Z"/><path class="cls-1" d="M42.57,1h2.7V8.25L48.69,1h2.69l-3.2,6.29,3.25,10.84H48.62l-2.28-7.64L45.27,12.7v5.46h-2.7Z"/><path class="cls-1" d="M52.14,14.19V5c0-2.65,1.37-4.21,4-4.21s4,1.56,4,4.21V6.81H57.52v-2c0-1.12-.54-1.59-1.34-1.59s-1.35.47-1.35,1.59v9.57c0,1.13.54,1.57,1.35,1.57s1.34-.44,1.34-1.57V11.77h2.55v2.42c0,2.65-1.37,4.21-4,4.21S52.14,16.84,52.14,14.19Z"/><path class="cls-1" d="M61.68,1h4c2.79,0,4,1.3,4,3.94V6c0,1.77-.57,2.89-1.76,3.38v0c1.34.41,1.78,1.69,1.78,3.62v3a5,5,0,0,0,.3,2.08H67.23A5.46,5.46,0,0,1,67,16.05V12.92c0-1.59-.46-2.1-1.69-2.1h-.93v7.34H61.68Zm3.67,7.34c1,0,1.62-.44,1.62-1.81V5.24C67,4,66.55,3.48,65.6,3.48H64.37V8.37Z"/><path class="cls-1" d="M73.62,10.87,70.37,1h2.86l1.83,6.29h0L77,1h2.62l-3.26,9.84v7.29H73.62Z"/><path class="cls-1" d="M80.79,1h4c2.69,0,4,1.5,4,4.24V7c0,2.74-1.33,4.24-4,4.24H83.48v7H80.79Zm4,7.71c.86,0,1.32-.39,1.32-1.62v-2c0-1.22-.46-1.61-1.32-1.61H83.48V8.74Z"/><path class="cls-1" d="M92.39,3.48H89.57V1h8.32V3.48H95.08V18.16H92.39Z"/><path class="cls-1" d="M98.89,14.1v-9c0-2.74,1.45-4.3,4.09-4.3s4.08,1.56,4.08,4.3v9c0,2.74-1.44,4.3-4.08,4.3S98.89,16.84,98.89,14.1Zm5.48.17V4.92c0-1.22-.53-1.69-1.39-1.69s-1.39.47-1.39,1.69v9.35c0,1.22.53,1.69,1.39,1.69S104.37,15.49,104.37,14.27Z"/><path class="cls-3" d="M.19,23.19h2v.46H.67V26.8H.19Z"/><path class="cls-3" d="M3.74,24.16a1.25,1.25,0,0,1,.93.39,1.42,1.42,0,0,1,0,1.93,1.24,1.24,0,0,1-.93.39,1.09,1.09,0,0,1-1-.51v1.47H2.32V24.22h.45v.45A1.09,1.09,0,0,1,3.74,24.16Zm-.05,2.27a.87.87,0,0,0,.65-.26.93.93,0,0,0,.26-.66.89.89,0,0,0-.26-.65.88.88,0,0,0-.65-.27.91.91,0,0,0-.92.92.93.93,0,0,0,.26.66A.89.89,0,0,0,3.69,26.43Z"/><path class="cls-3" d="M6.73,26.24l.74-2H8L6.9,27a1.51,1.51,0,0,1-.46.67,1,1,0,0,1-.68.2v-.42q.47,0,.69-.51l0-.09L5.38,24.22h.47Z"/><path class="cls-3" d="M8.53,24.22h2.23V26.8h-.45V24.65H9V26.8H8.53Z"/><path class="cls-3" d="M11.63,24.22h2.23V26.8h-.44V24.65H12.08V26.8h-.45Z"/><path class="cls-3" d="M16.87,24.67v-.45h.45V26.8h-.45v-.44a1.08,1.08,0,0,1-1,.51,1.22,1.22,0,0,1-.92-.39,1.42,1.42,0,0,1,0-1.93,1.23,1.23,0,0,1,.92-.39A1.08,1.08,0,0,1,16.87,24.67ZM16,26.43a.87.87,0,0,0,.65-.26.89.89,0,0,0,.26-.66.85.85,0,0,0-.26-.65.88.88,0,0,0-.65-.27.92.92,0,0,0-.92.92.9.9,0,0,0,.27.66A.85.85,0,0,0,16,26.43Z"/><path class="cls-3" d="M20.59,25.47l1.27,1.33H21.3l-1.17-1.22V26.8h-.45V24.22h.45v1.14l1.11-1.14h.58Z"/><path class="cls-3" d="M24.41,26.48a1.3,1.3,0,0,1-1,.39,1.33,1.33,0,0,1-1-.39,1.34,1.34,0,0,1-.39-1,1.3,1.3,0,0,1,.39-1,1.33,1.33,0,0,1,1-.39,1.35,1.35,0,0,1,1.36,1.35A1.35,1.35,0,0,1,24.41,26.48Zm-1-.05a.89.89,0,0,0,.91-.92.89.89,0,0,0-.91-.91.87.87,0,0,0-.65.26.89.89,0,0,0-.26.65.93.93,0,0,0,.26.66A.91.91,0,0,0,23.45,26.43Z"/><path class="cls-3" d="M27.63,24.22h.48V26.8h-.44V24.93l-.82,1.32H26.8L26,24.93V26.8h-.45V24.22H26l.81,1.31Z"/><path class="cls-3" d="M29,24.22h2.23V26.8h-.45V24.65H29.44V26.8H29Z"/><path class="cls-3" d="M34.23,24.67v-.45h.45V26.8h-.45v-.44a1.09,1.09,0,0,1-1,.51,1.24,1.24,0,0,1-.93-.39,1.42,1.42,0,0,1,0-1.93,1.25,1.25,0,0,1,.93-.39A1.09,1.09,0,0,1,34.23,24.67Zm-.92,1.76a.89.89,0,0,0,.66-.26.93.93,0,0,0,.26-.66.91.91,0,0,0-.92-.92.88.88,0,0,0-.65.27.89.89,0,0,0-.26.65.93.93,0,0,0,.26.66A.87.87,0,0,0,33.31,26.43Z"/><path class="cls-3" d="M37.34,25.3V24.22h.44V26.8h-.44V25.72H36V26.8h-.45V24.22H36V25.3Z"/><path class="cls-3" d="M39.1,26l1.43-1.81h.36V26.8h-.44V25L39,26.8h-.36V24.22h.44Z"/><path class="cls-3" d="M42.21,26l1.43-1.81H44V26.8h-.45V25L42.13,26.8h-.36V24.22h.44Zm1.37-2.19H42.19v-.39h1.39Z"/><path class="cls-3" d="M46.36,24.22h2.23V26.8h-.45V24.65H46.81V26.8h-.45Z"/><path class="cls-3" d="M51.64,26.48a1.33,1.33,0,0,1-1,.39,1.3,1.3,0,0,1-1-.39,1.34,1.34,0,0,1-.39-1,1.33,1.33,0,0,1,1.35-1.35,1.33,1.33,0,0,1,1,.39,1.3,1.3,0,0,1,.39,1A1.34,1.34,0,0,1,51.64,26.48Zm-1-.05a.91.91,0,0,0,.92-.92.91.91,0,1,0-1.82,0,.89.89,0,0,0,.26.66A.9.9,0,0,0,50.67,26.43Z"/><path class="cls-3" d="M54.25,24.22h2.23V26.8H56V24.65H54.69V26.8h-.44Z"/><path class="cls-3" d="M58.77,24.16a1.27,1.27,0,0,1,.93.39,1.42,1.42,0,0,1,0,1.93,1.24,1.24,0,0,1-.93.39,1.09,1.09,0,0,1-1-.51v1.47h-.45V24.22h.45v.45A1.09,1.09,0,0,1,58.77,24.16Zm-.05,2.27a.88.88,0,0,0,.65-.26.93.93,0,0,0,.26-.66.92.92,0,1,0-1.83,0,.93.93,0,0,0,.26.66A.89.89,0,0,0,58.72,26.43Z"/><path class="cls-3" d="M63,26.48a1.36,1.36,0,0,1-2.32-1,1.28,1.28,0,0,1,.4-1,1.38,1.38,0,0,1,1.92,0,1.28,1.28,0,0,1,.4,1A1.31,1.31,0,0,1,63,26.48Zm-1-.05a.91.91,0,0,0,.65-.26.93.93,0,0,0,.26-.66.89.89,0,0,0-.26-.65A.87.87,0,0,0,62,24.6a.83.83,0,0,0-.64.26.86.86,0,0,0-.27.65.9.9,0,0,0,.27.66A.87.87,0,0,0,62,26.43Z"/><path class="cls-3" d="M66.22,24.22v2.15h.35v1.12h-.44V26.8H64.2v.69h-.45V26.37h.32a1.6,1.6,0,0,0,.25-.95v-1.2Zm-1.64,2.15h1.19V24.64h-1v.78A2.21,2.21,0,0,1,64.58,26.37Z"/><path class="cls-3" d="M69.28,24.67v-.45h.45V26.8h-.45v-.44a1.08,1.08,0,0,1-1,.51,1.23,1.23,0,0,1-.92-.39,1.42,1.42,0,0,1,0-1.93,1.23,1.23,0,0,1,.92-.39A1.08,1.08,0,0,1,69.28,24.67Zm-.91,1.76a.85.85,0,0,0,.65-.26.89.89,0,0,0,.26-.66.92.92,0,1,0-1.83,0,.9.9,0,0,0,.27.66A.85.85,0,0,0,68.37,26.43Z"/><path class="cls-3" d="M72.69,25.47l1.09,1.33h-.53l-1-1.22V26.8h-.45V25.58l-1,1.22h-.52l1.08-1.33-1-1.25h.52l.91,1.14V24.22h.45v1.14l.91-1.14h.52Z"/><path class="cls-3" d="M76.67,25.72H74.51a.84.84,0,0,0,.31.53,1,1,0,0,0,.62.19.8.8,0,0,0,.74-.37l.38.21a1.26,1.26,0,0,1-1.13.59,1.3,1.3,0,0,1-1.38-1.36,1.34,1.34,0,0,1,.37-1,1.35,1.35,0,0,1,1-.38,1.16,1.16,0,0,1,.92.4,1.36,1.36,0,0,1,.36,1A1.41,1.41,0,0,1,76.67,25.72ZM75.4,24.58a.92.92,0,0,0-.6.2.87.87,0,0,0-.29.55h1.72a.85.85,0,0,0-.29-.55A.76.76,0,0,0,75.4,24.58Z"/><path class="cls-3" d="M77.34,26.27h.52l-.34,1.25h-.39Z"/><path class="cls-3" d="M81.42,25.47l1,1.33h-.52l-.72-1-.73,1h-.52l1-1.32L80,24.22h.53l.67.9.66-.9h.53Z"/><path class="cls-3" d="M85,26.48a1.36,1.36,0,0,1-2.32-1,1.28,1.28,0,0,1,.4-1,1.38,1.38,0,0,1,1.92,0,1.28,1.28,0,0,1,.4,1A1.31,1.31,0,0,1,85,26.48Zm-1-.05a.91.91,0,0,0,.65-.26.93.93,0,0,0,.26-.66.89.89,0,0,0-.26-.65.94.94,0,0,0-1.3,0,.89.89,0,0,0-.26.65.93.93,0,0,0,.26.66A.91.91,0,0,0,84.05,26.43Z"/><path class="cls-3" d="M87.35,26.87A1.36,1.36,0,1,1,88,24.34a1.12,1.12,0,0,1,.45.49l-.37.22a.8.8,0,0,0-.3-.33.9.9,0,0,0-.46-.12.85.85,0,0,0-.65.26.94.94,0,0,0,0,1.3.85.85,0,0,0,.65.26.9.9,0,0,0,.46-.12.79.79,0,0,0,.31-.32l.39.22a1.41,1.41,0,0,1-.48.49A1.36,1.36,0,0,1,87.35,26.87Z"/><path class="cls-3" d="M88.81,24.22H91v.44h-.88V26.8h-.45V24.66h-.88Z"/><path class="cls-3" d="M92.05,26l1.43-1.81h.36V26.8h-.45V25L92,26.8h-.36V24.22h.44Z"/><path class="cls-3" d="M96.5,25.3V24.22h.44V26.8H96.5V25.72H95.16V26.8h-.45V24.22h.45V25.3Z"/><path class="cls-3" d="M97.82,24.22h1.69v.44H98.27V26.8h-.45Z"/><path class="cls-3" d="M101.3,26.24l.74-2h.48l-1,2.74a1.53,1.53,0,0,1-.47.67,1,1,0,0,1-.68.2v-.42c.32,0,.55-.14.7-.51l0-.09-1.12-2.59h.48Z"/><path class="cls-3" d="M105,26l1.42-1.81h.36V26.8h-.44V25l-1.42,1.81h-.37V24.22H105Z"/><path class="cls-3" d="M2.32,32.66a1.3,1.3,0,0,1-1,.39,1.31,1.31,0,0,1-1-.39,1.39,1.39,0,0,1,0-1.93,1.31,1.31,0,0,1,1-.39,1.3,1.3,0,0,1,1,.39,1.36,1.36,0,0,1,0,1.93Zm-1,0A.88.88,0,0,0,2,32.35.93.93,0,0,0,2,31a.88.88,0,0,0-.64-.26A.91.91,0,0,0,.71,31a1,1,0,0,0,0,1.31A.91.91,0,0,0,1.36,32.61Z"/><path class="cls-3" d="M4.42,33.05a1.28,1.28,0,0,1-.95-.38,1.34,1.34,0,0,1-.37-1,2.25,2.25,0,0,1,.19-1,1.7,1.7,0,0,1,.8-.64l.07,0L4.27,30l.11-.05.28-.12c.27-.14.42-.3.44-.5l.36.21a.87.87,0,0,1-.12.29l0,0,0,.05,0,0,0,0-.06,0-.27.15-.07,0,0,0,0,0-.17.07-.17.07a1.9,1.9,0,0,0-.51.3.85.85,0,0,0-.23.39,1,1,0,0,1,.4-.3,1.24,1.24,0,0,1,.5-.1,1.11,1.11,0,0,1,.82.33,1.13,1.13,0,0,1,.34.85,1.15,1.15,0,0,1-.36.87A1.27,1.27,0,0,1,4.42,33.05Zm.83-1.21A.74.74,0,0,0,5,31.28a.8.8,0,0,0-.59-.22,1,1,0,0,0-.6.21.67.67,0,0,0-.26.54.75.75,0,0,0,.24.58.85.85,0,0,0,.61.23A.84.84,0,0,0,5,32.4.74.74,0,0,0,5.25,31.84Z"/><path class="cls-3" d="M7.38,33.05a1.36,1.36,0,1,1,.68-2.53,1.11,1.11,0,0,1,.46.5l-.38.21a.74.74,0,0,0-.3-.33.9.9,0,0,0-.46-.12.89.89,0,0,0-.65.26.93.93,0,0,0-.26.66.88.88,0,0,0,.26.64.86.86,0,0,0,.65.27.9.9,0,0,0,.46-.12.85.85,0,0,0,.32-.33l.38.22a1.31,1.31,0,0,1-1.16.67Z"/><path class="cls-3" d="M9.17,30.41h1.91V33h-.45V30.84h-1v1.05a1.29,1.29,0,0,1-.24.88.86.86,0,0,1-.73.21v-.42a.44.44,0,0,0,.4-.12,1,1,0,0,0,.13-.56Z"/><path class="cls-3" d="M12.81,32.43l.74-2H14l-1,2.73a1.46,1.46,0,0,1-.46.67,1,1,0,0,1-.68.2V33.6c.31,0,.54-.15.69-.52l.05-.09-1.12-2.58h.47Z"/><path class="cls-3" d="M16.44,31.65,17.52,33H17l-1-1.22V33h-.44V31.76l-1,1.22h-.52l1.07-1.33-1-1.24h.52l.91,1.14V30.41H16v1.14l.91-1.14h.53Z"/><path class="cls-3" d="M18.39,32.22l1.43-1.81h.36V33h-.44V31.17L18.31,33H18V30.41h.44Z"/><path class="cls-3" d="M22.58,31.66a.6.6,0,0,1,.39.6.67.67,0,0,1-.21.52.85.85,0,0,1-.61.2H20.86V30.41H22a.85.85,0,0,1,.6.19.64.64,0,0,1,.21.51A.62.62,0,0,1,22.58,31.66ZM22,30.81H21.3v.67H22c.26,0,.4-.11.4-.34S22.28,30.81,22,30.81Zm-.72,1.77h.82a.45.45,0,0,0,.3-.1.33.33,0,0,0,.11-.26.31.31,0,0,0-.11-.25.45.45,0,0,0-.3-.09H21.3Z"/><path class="cls-3" d="M25.59,30.85v-.44H26V33h-.45v-.44a1.08,1.08,0,0,1-1,.51,1.24,1.24,0,0,1-.93-.39,1.37,1.37,0,0,1-.38-1,1.34,1.34,0,0,1,.38-1,1.23,1.23,0,0,1,.93-.4A1.08,1.08,0,0,1,25.59,30.85Zm-.92,1.77a.9.9,0,0,0,.66-.27.92.92,0,0,0,.26-.65.91.91,0,0,0-.26-.66.9.9,0,0,0-.66-.27A.88.88,0,0,0,24,31a.91.91,0,0,0-.26.66.92.92,0,0,0,.26.65A.88.88,0,0,0,24.67,32.62Z"/><path class="cls-3" d="M28.5,31.48V30.41H29V33H28.5V31.91H27.17V33h-.45V30.41h.45v1.07Z"/><path class="cls-3" d="M30.07,32.22l1.43-1.81h.36V33h-.44V31.17L30,33h-.36V30.41h.44Z"/><path class="cls-3" d="M34.79,30.34a1.3,1.3,0,0,1,1,.39,1.36,1.36,0,0,1,0,1.93,1.3,1.3,0,0,1-1,.39,1.32,1.32,0,0,1-.88-.32,1.26,1.26,0,0,1-.44-.82H33V33h-.45V30.41H33v1.07h.48a1.31,1.31,0,0,1,.44-.82A1.34,1.34,0,0,1,34.79,30.34Zm0,2.27a.87.87,0,0,0,.64-.26.93.93,0,0,0,0-1.31.87.87,0,0,0-.64-.26.92.92,0,1,0,0,1.83Z"/><path class="cls-3" d="M40.14,32.66a1.36,1.36,0,1,1,.4-1A1.3,1.3,0,0,1,40.14,32.66Zm-1,0a.92.92,0,1,0,0-1.83.92.92,0,1,0,0,1.83Z"/><path class="cls-3" d="M42.24,33.05a1.27,1.27,0,0,1-.94-.38,1.3,1.3,0,0,1-.37-1,2.13,2.13,0,0,1,.19-1,1.66,1.66,0,0,1,.79-.64L42,30l.1-.05.12-.05.27-.12c.28-.14.42-.3.44-.5l.36.21a.59.59,0,0,1-.12.29s0,0,0,0l0,.05,0,0,0,0L43,30a1.62,1.62,0,0,1-.28.15l-.06,0,0,0,0,0-.17.07-.16.07a1.9,1.9,0,0,0-.51.3.86.86,0,0,0-.24.39,1,1,0,0,1,.41-.3,1.24,1.24,0,0,1,.5-.1,1.11,1.11,0,0,1,.82.33,1.13,1.13,0,0,1,.34.85,1.15,1.15,0,0,1-.36.87A1.29,1.29,0,0,1,42.24,33.05Zm.83-1.21a.73.73,0,0,0-.22-.56.8.8,0,0,0-.59-.22,1,1,0,0,0-.6.21.65.65,0,0,0-.26.54.75.75,0,0,0,.24.58.85.85,0,0,0,.6.23.82.82,0,0,0,.59-.22A.74.74,0,0,0,43.07,31.84Z"/><path class="cls-3" d="M46.17,32.66a1.33,1.33,0,0,1-1,.39,1.36,1.36,0,1,1,0-2.71,1.33,1.33,0,0,1,1,.39,1.39,1.39,0,0,1,0,1.93Zm-1,0a.89.89,0,0,0,.65-.26.93.93,0,0,0,0-1.31.93.93,0,0,0-1.29,0,1,1,0,0,0,0,1.31A.88.88,0,0,0,45.2,32.61Z"/><path class="cls-3" d="M48.52,30.34a1.22,1.22,0,0,1,.92.4,1.34,1.34,0,0,1,.38,1,1.37,1.37,0,0,1-.38,1,1.23,1.23,0,0,1-.92.39,1.11,1.11,0,0,1-1-.51V34h-.45v-3.6h.45v.44A1.11,1.11,0,0,1,48.52,30.34Zm-.06,2.28a.88.88,0,0,0,.65-.27.92.92,0,0,0,.26-.65.91.91,0,0,0-.26-.66.88.88,0,0,0-.65-.27.9.9,0,0,0-.66.27.91.91,0,0,0-.26.66.92.92,0,0,0,.26.65A.9.9,0,0,0,48.46,32.62Z"/><path class="cls-3" d="M51.31,32.43l.74-2h.48l-1.05,2.73a1.47,1.47,0,0,1-.47.67,1,1,0,0,1-.68.2V33.6a.69.69,0,0,0,.7-.52l0-.09L50,30.41h.48Z"/><path class="cls-3" d="M55,30.41v2.14h.36v1.12h-.45V33H52.94v.69H52.5V32.55h.31a1.54,1.54,0,0,0,.25-.95V30.41Zm-1.64,2.14h1.2V30.82h-1v.78A2.21,2.21,0,0,1,53.32,32.55Z"/><path class="cls-3" d="M57.87,32.66a1.3,1.3,0,0,1-1,.39,1.34,1.34,0,0,1-1-.39,1.39,1.39,0,0,1,0-1.93,1.34,1.34,0,0,1,1-.39,1.36,1.36,0,0,1,1,2.32Zm-1,0a.89.89,0,1,0-.65-.26A.91.91,0,0,0,56.91,32.61Z"/><path class="cls-3" d="M60.51,31.66a.59.59,0,0,1,.4.6.67.67,0,0,1-.21.52.85.85,0,0,1-.61.2H58.8V30.41H60a.85.85,0,0,1,.6.19.64.64,0,0,1,.21.51A.61.61,0,0,1,60.51,31.66ZM60,30.81h-.72v.67H60c.26,0,.39-.11.39-.34S60.22,30.81,60,30.81Zm-.72,1.77h.82a.45.45,0,0,0,.3-.1.33.33,0,0,0,.11-.26.31.31,0,0,0-.11-.25.45.45,0,0,0-.3-.09h-.82Z"/><path class="cls-3" d="M63.53,30.85v-.44H64V33h-.45v-.44a1.09,1.09,0,0,1-1,.51,1.24,1.24,0,0,1-.93-.39,1.37,1.37,0,0,1-.38-1,1.34,1.34,0,0,1,.38-1,1.23,1.23,0,0,1,.93-.4A1.09,1.09,0,0,1,63.53,30.85Zm-.92,1.77a.9.9,0,0,0,.66-.27.92.92,0,0,0,.26-.65.91.91,0,0,0-.26-.66.9.9,0,0,0-.66-.27A.88.88,0,0,0,62,31a.91.91,0,0,0-.26.66.92.92,0,0,0,.26.65A.88.88,0,0,0,62.61,32.62Z"/><path class="cls-3" d="M66.44,31.48V30.41h.45V33h-.45V31.91H65.1V33h-.44V30.41h.44v1.07Z"/><path class="cls-3" d="M68,32.22l1.43-1.81h.36V33h-.45V31.17L67.93,33h-.36V30.41H68Z"/><path class="cls-3" d="M71.31,30.41h1.1V33H72v-.92h-.37l-.73.92h-.54l.75-.95a.82.82,0,0,1-.47-.29.75.75,0,0,1-.18-.5.82.82,0,0,1,.25-.6A.93.93,0,0,1,71.31,30.41Zm0,1.24H72v-.83h-.64a.44.44,0,0,0-.32.12.39.39,0,0,0,0,.6A.48.48,0,0,0,71.32,31.65Z"/><path class="cls-3" d="M76.59,30.41v2.14h.35v1.12H76.5V33H74.57v.69h-.44V32.55h.31a1.6,1.6,0,0,0,.25-.95V30.41ZM75,32.55h1.2V30.82h-1v.78A2.21,2.21,0,0,1,75,32.55Z"/><path class="cls-3" d="M77.67,30.41h1.91V33h-.45V30.84h-1v1.05a1.29,1.29,0,0,1-.24.88.86.86,0,0,1-.73.21v-.42a.44.44,0,0,0,.4-.12,1,1,0,0,0,.13-.56Z"/><path class="cls-3" d="M81.09,30.41h1.09V33h-.44v-.92h-.38l-.72.92H80.1l.75-.95a.82.82,0,0,1-.47-.29.75.75,0,0,1-.18-.5.79.79,0,0,1,.25-.6A.93.93,0,0,1,81.09,30.41Zm0,1.24h.64v-.83H81.1a.44.44,0,0,0-.32.12.39.39,0,0,0,0,.6A.48.48,0,0,0,81.1,31.65Z"/><path class="cls-3" d="M86.25,30.41h.48V33h-.44V31.11l-.82,1.32h-.06l-.81-1.32V33h-.45V30.41h.48l.81,1.3Z"/><path class="cls-3" d="M89.55,30.85v-.44H90V33h-.44v-.44a1.1,1.1,0,0,1-1,.51,1.23,1.23,0,0,1-.92-.39,1.37,1.37,0,0,1-.38-1,1.34,1.34,0,0,1,.38-1,1.21,1.21,0,0,1,.92-.4A1.1,1.1,0,0,1,89.55,30.85Zm-.92,1.77a.86.86,0,0,0,.65-.27.89.89,0,0,0,.27-.65.88.88,0,0,0-.27-.66.86.86,0,0,0-.65-.27.93.93,0,0,0,0,1.85Z"/><path class="cls-3" d="M91.12,32.22l1.42-1.81h.36V33h-.44V31.17L91,33h-.36V30.41h.45ZM92.49,30H91.1v-.39h1.39Z"/><path class="cls-3" d="M95.37,31.48V30.41h.45V33h-.45V31.91H94V33h-.44V30.41H94v1.07Z"/><path class="cls-3" d="M96.94,32.22l1.43-1.81h.36V33h-.45V31.17L96.86,33H96.5V30.41h.44Z"/><path class="cls-3" d="M101.19,31.48V30.41h.45V33h-.45V31.91H99.85V33h-.44V30.41h.44v1.07Z"/><path class="cls-3" d="M102.32,30.41H104v.43h-1.24V33h-.45Z"/><path class="cls-3" d="M106.43,30.85v-.44h.45V33h-.45v-.44a1.09,1.09,0,0,1-1,.51,1.24,1.24,0,0,1-.93-.39,1.37,1.37,0,0,1-.38-1,1.34,1.34,0,0,1,.38-1,1.23,1.23,0,0,1,.93-.4A1.09,1.09,0,0,1,106.43,30.85Zm-.92,1.77a.9.9,0,0,0,.66-.27.92.92,0,0,0,.26-.65.91.91,0,0,0-.26-.66.9.9,0,0,0-.66-.27.88.88,0,0,0-.65.27.91.91,0,0,0-.26.66.92.92,0,0,0,.26.65A.88.88,0,0,0,105.51,32.62Z"/></g></g></svg>