<svg xmlns="http://www.w3.org/2000/svg" viewBox="0 0 334.08 286.21"><defs><style>.cls-1{opacity:0.5;}.cls-2{fill:#7b6842;}</style></defs><title>templ-text-wrapper_1</title><g id="Слой_2" data-name="Слой 2"><g id="Слой_1-2" data-name="Слой 1"><g class="cls-1"><path class="cls-2" d="M143.27,138.94V0H0V142.58H95a75.55,75.55,0,0,1-.5,15.69A76.24,76.24,0,0,1,91,172.93a109.41,109.41,0,0,1-8.33,17.32,109,109,0,0,1-11,15.33,109.4,109.4,0,0,1-20.33,17,109.46,109.46,0,0,1-23,11.33c-3.48.93-7.26,1.79-11.33,2.5a129.34,129.34,0,0,1-17,1.83v48c4.76-.08,9.89-.38,15.33-1a158.75,158.75,0,0,0,26.49-5.33,171.53,171.53,0,0,0,22.65-9.49A171.88,171.88,0,0,0,86.3,257.22a157.84,157.84,0,0,0,17.82-16.49A157.93,157.93,0,0,0,118,223.57a89.08,89.08,0,0,0,8.5-12.83,88.1,88.1,0,0,0,6.49-15.16,125.22,125.22,0,0,0,4.67-12.32,126.67,126.67,0,0,0,3.66-14.33,139.5,139.5,0,0,0,1.86-15.64A139.37,139.37,0,0,0,143.27,138.94Z"/><path class="cls-2" d="M334,138.94V0H190.69V142.58h95a76.1,76.1,0,0,1-4,30.35,109.77,109.77,0,0,1-19.32,32.65A109.65,109.65,0,0,1,219,233.9c-3.48.93-7.26,1.79-11.33,2.5a129.34,129.34,0,0,1-17,1.83v48c4.76-.08,9.89-.38,15.33-1a158.75,158.75,0,0,0,26.49-5.33A171.48,171.48,0,0,0,277,257.22a159,159,0,0,0,31.65-33.65,89.08,89.08,0,0,0,8.5-12.83,88.1,88.1,0,0,0,6.49-15.16A124.62,124.62,0,0,0,332,168.93a138.64,138.64,0,0,0,2-30Z"/></g></g></g></svg>